<?xml version="1.0" encoding="UTF-8" standalone="no"?>
<!DOCTYPE svg PUBLIC "-//W3C//DTD SVG 1.1//EN"
 "http://www.w3.org/Graphics/SVG/1.1/DTD/svg11.dtd">
<!-- Generated by graphviz version 9.0.0 (20230911.1827)
 -->
<!-- Title: C:/Dev/Scarlet/Source/Scarlet/Core/Input/InputConfigurationComponent.h Pages: 1 -->
<svg width="354pt" height="132pt"
 viewBox="0.00 0.00 354.12 132.00" xmlns="http://www.w3.org/2000/svg" xmlns:xlink="http://www.w3.org/1999/xlink">
<g id="graph0" class="graph" transform="scale(1 1) rotate(0) translate(4 128)">
<title>C:/Dev/Scarlet/Source/Scarlet/Core/Input/InputConfigurationComponent.h</title>
<!-- Node1 -->
<g id="Node000001" class="node">
<title>Node1</title>
<g id="a_Node000001"><a xlink:title=" ">
<polygon fill="#999999" stroke="#666666" points="255.12,-124 77.88,-124 77.88,-80 255.12,-80 255.12,-124"/>
<text text-anchor="start" x="85.88" y="-110.5" font-family="Helvetica,sans-Serif" font-size="10.00">C:/Dev/Scarlet/Source</text>
<text text-anchor="start" x="85.88" y="-98.5" font-family="Helvetica,sans-Serif" font-size="10.00">/Scarlet/Core/Input/InputConfiguration</text>
<text text-anchor="middle" x="166.5" y="-86.5" font-family="Helvetica,sans-Serif" font-size="10.00">Component.h</text>
</a>
</g>
</g>
<!-- Node2 -->
<g id="Node000002" class="node">
<title>Node2</title>
<g id="a_Node000002"><a xlink:href="_agent_player_character_8cpp.html" target="_top" xlink:title=" ">
<polygon fill="white" stroke="#666666" points="151,-44 0,-44 0,0 151,0 151,-44"/>
<text text-anchor="start" x="8" y="-30.5" font-family="Helvetica,sans-Serif" font-size="10.00">C:/Dev/Scarlet/Source</text>
<text text-anchor="start" x="8" y="-18.5" font-family="Helvetica,sans-Serif" font-size="10.00">/Scarlet/Character/AgentPlayer</text>
<text text-anchor="middle" x="75.5" y="-6.5" font-family="Helvetica,sans-Serif" font-size="10.00">Character.cpp</text>
</a>
</g>
</g>
<!-- Node1&#45;&gt;Node2 -->
<g id="edge1_Node000001_Node000002" class="edge">
<title>Node1&#45;&gt;Node2</title>
<g id="a_edge1_Node000001_Node000002"><a xlink:title=" ">
<path fill="none" stroke="#63b8ff" d="M133.19,-72.45C122.33,-63.14 110.46,-52.97 100.34,-44.29"/>
<polygon fill="#63b8ff" stroke="#63b8ff" points="130.61,-74.85 140.48,-78.7 135.17,-69.54 130.61,-74.85"/>
</a>
</g>
</g>
<!-- Node3 -->
<g id="Node000003" class="node">
<title>Node3</title>
<g id="a_Node000003"><a xlink:href="_input_configuration_component_8cpp.html" target="_top" xlink:title=" ">
<polygon fill="white" stroke="#666666" points="346.12,-44 168.88,-44 168.88,0 346.12,0 346.12,-44"/>
<text text-anchor="start" x="176.88" y="-30.5" font-family="Helvetica,sans-Serif" font-size="10.00">C:/Dev/Scarlet/Source</text>
<text text-anchor="start" x="176.88" y="-18.5" font-family="Helvetica,sans-Serif" font-size="10.00">/Scarlet/Core/Input/InputConfiguration</text>
<text text-anchor="middle" x="257.5" y="-6.5" font-family="Helvetica,sans-Serif" font-size="10.00">Component.cpp</text>
</a>
</g>
</g>
<!-- Node1&#45;&gt;Node3 -->
<g id="edge2_Node000001_Node000003" class="edge">
<title>Node1&#45;&gt;Node3</title>
<g id="a_edge2_Node000001_Node000003"><a xlink:title=" ">
<path fill="none" stroke="#63b8ff" d="M199.81,-72.45C210.67,-63.14 222.54,-52.97 232.66,-44.29"/>
<polygon fill="#63b8ff" stroke="#63b8ff" points="197.83,-69.54 192.52,-78.7 202.39,-74.85 197.83,-69.54"/>
</a>
</g>
</g>
</g>
</svg>
