<?xml version="1.0" encoding="UTF-8" standalone="no"?>
<!DOCTYPE svg PUBLIC "-//W3C//DTD SVG 1.1//EN"
 "http://www.w3.org/Graphics/SVG/1.1/DTD/svg11.dtd">
<!-- Generated by graphviz version 9.0.0 (20230911.1827)
 -->
<!-- Title: C:/Dev/Scarlet/Source/Scarlet/Core/Input/InputConfigurationComponent.h Pages: 1 -->
<svg width="475pt" height="108pt"
 viewBox="0.00 0.00 474.50 108.00" xmlns="http://www.w3.org/2000/svg" xmlns:xlink="http://www.w3.org/1999/xlink">
<g id="graph0" class="graph" transform="scale(1 1) rotate(0) translate(4 104)">
<title>C:/Dev/Scarlet/Source/Scarlet/Core/Input/InputConfigurationComponent.h</title>
<!-- Node1 -->
<g id="Node000001" class="node">
<title>Node1</title>
<g id="a_Node000001"><a xlink:title=" ">
<polygon fill="#999999" stroke="#666666" points="262.75,-100 85.5,-100 85.5,-56 262.75,-56 262.75,-100"/>
<text text-anchor="start" x="93.5" y="-86.5" font-family="Helvetica,sans-Serif" font-size="10.00">C:/Dev/Scarlet/Source</text>
<text text-anchor="start" x="93.5" y="-74.5" font-family="Helvetica,sans-Serif" font-size="10.00">/Scarlet/Core/Input/InputConfiguration</text>
<text text-anchor="middle" x="174.12" y="-62.5" font-family="Helvetica,sans-Serif" font-size="10.00">Component.h</text>
</a>
</g>
</g>
<!-- Node2 -->
<g id="Node000002" class="node">
<title>Node2</title>
<g id="a_Node000002"><a xlink:title=" ">
<polygon fill="#e0e0e0" stroke="#999999" points="78.25,-20 0,-20 0,0 78.25,0 78.25,-20"/>
<text text-anchor="middle" x="39.12" y="-6.5" font-family="Helvetica,sans-Serif" font-size="10.00">CoreMinimal.h</text>
</a>
</g>
</g>
<!-- Node1&#45;&gt;Node2 -->
<g id="edge1_Node000001_Node000002" class="edge">
<title>Node1&#45;&gt;Node2</title>
<g id="a_edge1_Node000001_Node000002"><a xlink:title=" ">
<path fill="none" stroke="#63b8ff" d="M130.29,-55.57C110.05,-45.68 86.56,-34.19 68.49,-25.36"/>
<polygon fill="#63b8ff" stroke="#63b8ff" points="70.16,-22.28 59.64,-21.03 67.09,-28.57 70.16,-22.28"/>
</a>
</g>
</g>
<!-- Node3 -->
<g id="Node000003" class="node">
<title>Node3</title>
<g id="a_Node000003"><a xlink:title=" ">
<polygon fill="#e0e0e0" stroke="#999999" points="251.5,-20 96.75,-20 96.75,0 251.5,0 251.5,-20"/>
<text text-anchor="middle" x="174.12" y="-6.5" font-family="Helvetica,sans-Serif" font-size="10.00">Components/ActorComponent.h</text>
</a>
</g>
</g>
<!-- Node1&#45;&gt;Node3 -->
<g id="edge2_Node000001_Node000003" class="edge">
<title>Node1&#45;&gt;Node3</title>
<g id="a_edge2_Node000001_Node000003"><a xlink:title=" ">
<path fill="none" stroke="#63b8ff" d="M174.12,-55.75C174.12,-48.13 174.12,-39.53 174.12,-31.93"/>
<polygon fill="#63b8ff" stroke="#63b8ff" points="177.63,-31.93 174.13,-21.93 170.63,-31.93 177.63,-31.93"/>
</a>
</g>
</g>
<!-- Node4 -->
<g id="Node000004" class="node">
<title>Node4</title>
<g id="a_Node000004"><a xlink:title=" ">
<polygon fill="#e0e0e0" stroke="#999999" points="466.5,-20 269.75,-20 269.75,0 466.5,0 466.5,-20"/>
<text text-anchor="middle" x="368.12" y="-6.5" font-family="Helvetica,sans-Serif" font-size="10.00">InputConfigurationComponent.generated.h</text>
</a>
</g>
</g>
<!-- Node1&#45;&gt;Node4 -->
<g id="edge3_Node000001_Node000004" class="edge">
<title>Node1&#45;&gt;Node4</title>
<g id="a_edge3_Node000001_Node000004"><a xlink:title=" ">
<path fill="none" stroke="#63b8ff" d="M237.11,-55.57C267.61,-45.2 303.24,-33.08 329.63,-24.09"/>
<polygon fill="#63b8ff" stroke="#63b8ff" points="330.57,-27.47 338.91,-20.94 328.31,-20.85 330.57,-27.47"/>
</a>
</g>
</g>
</g>
</svg>
