<?xml version="1.0" encoding="UTF-8" standalone="no"?>
<!DOCTYPE svg PUBLIC "-//W3C//DTD SVG 1.1//EN"
 "http://www.w3.org/Graphics/SVG/1.1/DTD/svg11.dtd">
<!-- Generated by graphviz version 9.0.0 (20230911.1827)
 -->
<!-- Title: C:/Dev/Scarlet/Source/Scarlet/Core/Input/InputConfigurationComponent.cpp Pages: 1 -->
<svg width="475pt" height="164pt"
 viewBox="0.00 0.00 474.50 164.00" xmlns="http://www.w3.org/2000/svg" xmlns:xlink="http://www.w3.org/1999/xlink">
<g id="graph0" class="graph" transform="scale(1 1) rotate(0) translate(4 160)">
<title>C:/Dev/Scarlet/Source/Scarlet/Core/Input/InputConfigurationComponent.cpp</title>
<!-- Node1 -->
<g id="Node000001" class="node">
<title>Node1</title>
<g id="a_Node000001"><a xlink:title=" ">
<polygon fill="#999999" stroke="#666666" points="344.75,-156 167.5,-156 167.5,-112 344.75,-112 344.75,-156"/>
<text text-anchor="start" x="175.5" y="-142.5" font-family="Helvetica,sans-Serif" font-size="10.00">C:/Dev/Scarlet/Source</text>
<text text-anchor="start" x="175.5" y="-130.5" font-family="Helvetica,sans-Serif" font-size="10.00">/Scarlet/Core/Input/InputConfiguration</text>
<text text-anchor="middle" x="256.12" y="-118.5" font-family="Helvetica,sans-Serif" font-size="10.00">Component.cpp</text>
</a>
</g>
</g>
<!-- Node2 -->
<g id="Node000002" class="node">
<title>Node2</title>
<g id="a_Node000002"><a xlink:href="_input_configuration_component_8h.html" target="_top" xlink:title=" ">
<polygon fill="white" stroke="#666666" points="249.62,-76 98.62,-76 98.62,-56 249.62,-56 249.62,-76"/>
<text text-anchor="middle" x="174.12" y="-62.5" font-family="Helvetica,sans-Serif" font-size="10.00">InputConfigurationComponent.h</text>
</a>
</g>
</g>
<!-- Node1&#45;&gt;Node2 -->
<g id="edge1_Node000001_Node000002" class="edge">
<title>Node1&#45;&gt;Node2</title>
<g id="a_edge1_Node000001_Node000002"><a xlink:title=" ">
<path fill="none" stroke="#63b8ff" d="M229.73,-111.75C218.4,-102.64 205.36,-92.14 194.76,-83.61"/>
<polygon fill="#63b8ff" stroke="#63b8ff" points="196.99,-80.91 187.01,-77.37 192.6,-86.36 196.99,-80.91"/>
</a>
</g>
</g>
<!-- Node6 -->
<g id="Node000006" class="node">
<title>Node6</title>
<g id="a_Node000006"><a xlink:title=" ">
<polygon fill="#e0e0e0" stroke="#999999" points="410.88,-76 267.38,-76 267.38,-56 410.88,-56 410.88,-76"/>
<text text-anchor="middle" x="339.12" y="-62.5" font-family="Helvetica,sans-Serif" font-size="10.00">GameFramework/Character.h</text>
</a>
</g>
</g>
<!-- Node1&#45;&gt;Node6 -->
<g id="edge5_Node000001_Node000006" class="edge">
<title>Node1&#45;&gt;Node6</title>
<g id="a_edge5_Node000001_Node000006"><a xlink:title=" ">
<path fill="none" stroke="#63b8ff" d="M282.84,-111.75C294.43,-102.54 307.78,-91.93 318.57,-83.35"/>
<polygon fill="#63b8ff" stroke="#63b8ff" points="320.45,-86.32 326.1,-77.36 316.09,-80.85 320.45,-86.32"/>
</a>
</g>
</g>
<!-- Node3 -->
<g id="Node000003" class="node">
<title>Node3</title>
<g id="a_Node000003"><a xlink:title=" ">
<polygon fill="#e0e0e0" stroke="#999999" points="78.25,-20 0,-20 0,0 78.25,0 78.25,-20"/>
<text text-anchor="middle" x="39.12" y="-6.5" font-family="Helvetica,sans-Serif" font-size="10.00">CoreMinimal.h</text>
</a>
</g>
</g>
<!-- Node2&#45;&gt;Node3 -->
<g id="edge2_Node000002_Node000003" class="edge">
<title>Node2&#45;&gt;Node3</title>
<g id="a_edge2_Node000002_Node000003"><a xlink:title=" ">
<path fill="none" stroke="#63b8ff" d="M150.61,-55.59C129.25,-47.05 97.49,-34.35 73.33,-24.68"/>
<polygon fill="#63b8ff" stroke="#63b8ff" points="74.81,-21.51 64.23,-21.04 72.21,-28.01 74.81,-21.51"/>
</a>
</g>
</g>
<!-- Node4 -->
<g id="Node000004" class="node">
<title>Node4</title>
<g id="a_Node000004"><a xlink:title=" ">
<polygon fill="#e0e0e0" stroke="#999999" points="251.5,-20 96.75,-20 96.75,0 251.5,0 251.5,-20"/>
<text text-anchor="middle" x="174.12" y="-6.5" font-family="Helvetica,sans-Serif" font-size="10.00">Components/ActorComponent.h</text>
</a>
</g>
</g>
<!-- Node2&#45;&gt;Node4 -->
<g id="edge3_Node000002_Node000004" class="edge">
<title>Node2&#45;&gt;Node4</title>
<g id="a_edge3_Node000002_Node000004"><a xlink:title=" ">
<path fill="none" stroke="#63b8ff" d="M174.12,-55.59C174.12,-49.01 174.12,-39.96 174.12,-31.73"/>
<polygon fill="#63b8ff" stroke="#63b8ff" points="177.63,-31.81 174.13,-21.81 170.63,-31.81 177.63,-31.81"/>
</a>
</g>
</g>
<!-- Node5 -->
<g id="Node000005" class="node">
<title>Node5</title>
<g id="a_Node000005"><a xlink:title=" ">
<polygon fill="#e0e0e0" stroke="#999999" points="466.5,-20 269.75,-20 269.75,0 466.5,0 466.5,-20"/>
<text text-anchor="middle" x="368.12" y="-6.5" font-family="Helvetica,sans-Serif" font-size="10.00">InputConfigurationComponent.generated.h</text>
</a>
</g>
</g>
<!-- Node2&#45;&gt;Node5 -->
<g id="edge4_Node000002_Node000005" class="edge">
<title>Node2&#45;&gt;Node5</title>
<g id="a_edge4_Node000002_Node000005"><a xlink:title=" ">
<path fill="none" stroke="#63b8ff" d="M207.92,-55.59C239.85,-46.71 287.97,-33.31 323.14,-23.52"/>
<polygon fill="#63b8ff" stroke="#63b8ff" points="323.92,-26.94 332.61,-20.89 322.04,-20.2 323.92,-26.94"/>
</a>
</g>
</g>
</g>
</svg>
