<?xml version="1.0" encoding="UTF-8" standalone="no"?>
<!DOCTYPE svg PUBLIC "-//W3C//DTD SVG 1.1//EN"
 "http://www.w3.org/Graphics/SVG/1.1/DTD/svg11.dtd">
<!-- Generated by graphviz version 9.0.0 (20230911.1827)
 -->
<!-- Title: C:/Dev/Scarlet/Source/Scarlet/Core/ScarletGameMode.h Pages: 1 -->
<svg width="448pt" height="96pt"
 viewBox="0.00 0.00 447.62 96.00" xmlns="http://www.w3.org/2000/svg" xmlns:xlink="http://www.w3.org/1999/xlink">
<g id="graph0" class="graph" transform="scale(1 1) rotate(0) translate(4 92)">
<title>C:/Dev/Scarlet/Source/Scarlet/Core/ScarletGameMode.h</title>
<!-- Node1 -->
<g id="Node000001" class="node">
<title>Node1</title>
<g id="a_Node000001"><a xlink:title=" ">
<polygon fill="#999999" stroke="#666666" points="265.75,-88 100.5,-88 100.5,-56 265.75,-56 265.75,-88"/>
<text text-anchor="start" x="108.5" y="-74.5" font-family="Helvetica,sans-Serif" font-size="10.00">C:/Dev/Scarlet/Source</text>
<text text-anchor="middle" x="183.12" y="-62.5" font-family="Helvetica,sans-Serif" font-size="10.00">/Scarlet/Core/ScarletGameMode.h</text>
</a>
</g>
</g>
<!-- Node2 -->
<g id="Node000002" class="node">
<title>Node2</title>
<g id="a_Node000002"><a xlink:title=" ">
<polygon fill="#e0e0e0" stroke="#999999" points="78.25,-20 0,-20 0,0 78.25,0 78.25,-20"/>
<text text-anchor="middle" x="39.12" y="-6.5" font-family="Helvetica,sans-Serif" font-size="10.00">CoreMinimal.h</text>
</a>
</g>
</g>
<!-- Node1&#45;&gt;Node2 -->
<g id="edge1_Node000001_Node000002" class="edge">
<title>Node1&#45;&gt;Node2</title>
<g id="a_edge1_Node000001_Node000002"><a xlink:title=" ">
<path fill="none" stroke="#63b8ff" d="M146.04,-55.55C123.23,-46.04 94.25,-33.97 72.21,-24.79"/>
<polygon fill="#63b8ff" stroke="#63b8ff" points="73.68,-21.61 63.1,-20.99 70.99,-28.07 73.68,-21.61"/>
</a>
</g>
</g>
<!-- Node3 -->
<g id="Node000003" class="node">
<title>Node3</title>
<g id="a_Node000003"><a xlink:title=" ">
<polygon fill="#e0e0e0" stroke="#999999" points="270.25,-20 96,-20 96,0 270.25,0 270.25,-20"/>
<text text-anchor="middle" x="183.12" y="-6.5" font-family="Helvetica,sans-Serif" font-size="10.00">GameFramework/GameModeBase.h</text>
</a>
</g>
</g>
<!-- Node1&#45;&gt;Node3 -->
<g id="edge2_Node000001_Node000003" class="edge">
<title>Node1&#45;&gt;Node3</title>
<g id="a_edge2_Node000001_Node000003"><a xlink:title=" ">
<path fill="none" stroke="#63b8ff" d="M183.12,-55.55C183.12,-48.34 183.12,-39.66 183.12,-31.88"/>
<polygon fill="#63b8ff" stroke="#63b8ff" points="186.63,-31.92 183.13,-21.92 179.63,-31.92 186.63,-31.92"/>
</a>
</g>
</g>
<!-- Node4 -->
<g id="Node000004" class="node">
<title>Node4</title>
<g id="a_Node000004"><a xlink:title=" ">
<polygon fill="#e0e0e0" stroke="#999999" points="439.62,-20 288.62,-20 288.62,0 439.62,0 439.62,-20"/>
<text text-anchor="middle" x="364.12" y="-6.5" font-family="Helvetica,sans-Serif" font-size="10.00">ScarletGameMode.generated.h</text>
</a>
</g>
</g>
<!-- Node1&#45;&gt;Node4 -->
<g id="edge3_Node000001_Node000004" class="edge">
<title>Node1&#45;&gt;Node4</title>
<g id="a_edge3_Node000001_Node000004"><a xlink:title=" ">
<path fill="none" stroke="#63b8ff" d="M229.74,-55.55C259.23,-45.77 296.94,-33.27 324.9,-24"/>
<polygon fill="#63b8ff" stroke="#63b8ff" points="325.65,-27.44 334.04,-20.97 323.45,-20.8 325.65,-27.44"/>
</a>
</g>
</g>
</g>
</svg>
