<?xml version="1.0" encoding="UTF-8" standalone="no"?>
<!DOCTYPE svg PUBLIC "-//W3C//DTD SVG 1.1//EN"
 "http://www.w3.org/Graphics/SVG/1.1/DTD/svg11.dtd">
<!-- Generated by graphviz version 9.0.0 (20230911.1827)
 -->
<!-- Title: C:/Dev/Scarlet/Source/Scarlet/Core/Input/ScarletInputConfiguration.h Pages: 1 -->
<svg width="547pt" height="108pt"
 viewBox="0.00 0.00 547.12 108.00" xmlns="http://www.w3.org/2000/svg" xmlns:xlink="http://www.w3.org/1999/xlink">
<g id="graph0" class="graph" transform="scale(1 1) rotate(0) translate(4 104)">
<title>C:/Dev/Scarlet/Source/Scarlet/Core/Input/ScarletInputConfiguration.h</title>
<!-- Node1 -->
<g id="Node000001" class="node">
<title>Node1</title>
<g id="a_Node000001"><a xlink:title=" ">
<polygon fill="#999999" stroke="#666666" points="290.5,-100 159.75,-100 159.75,-56 290.5,-56 290.5,-100"/>
<text text-anchor="start" x="167.75" y="-86.5" font-family="Helvetica,sans-Serif" font-size="10.00">C:/Dev/Scarlet/Source</text>
<text text-anchor="start" x="167.75" y="-74.5" font-family="Helvetica,sans-Serif" font-size="10.00">/Scarlet/Core/Input/Scarlet</text>
<text text-anchor="middle" x="225.12" y="-62.5" font-family="Helvetica,sans-Serif" font-size="10.00">InputConfiguration.h</text>
</a>
</g>
</g>
<!-- Node2 -->
<g id="Node000002" class="node">
<title>Node2</title>
<g id="a_Node000002"><a xlink:title=" ">
<polygon fill="#e0e0e0" stroke="#999999" points="78.25,-20 0,-20 0,0 78.25,0 78.25,-20"/>
<text text-anchor="middle" x="39.12" y="-6.5" font-family="Helvetica,sans-Serif" font-size="10.00">CoreMinimal.h</text>
</a>
</g>
</g>
<!-- Node1&#45;&gt;Node2 -->
<g id="edge1_Node000001_Node000002" class="edge">
<title>Node1&#45;&gt;Node2</title>
<g id="a_edge1_Node000001_Node000002"><a xlink:title=" ">
<path fill="none" stroke="#63b8ff" d="M164.74,-55.57C135.54,-45.21 101.43,-33.11 76.13,-24.13"/>
<polygon fill="#63b8ff" stroke="#63b8ff" points="77.54,-20.92 66.94,-20.87 75.2,-27.51 77.54,-20.92"/>
</a>
</g>
</g>
<!-- Node3 -->
<g id="Node000003" class="node">
<title>Node3</title>
<g id="a_Node000003"><a xlink:title=" ">
<polygon fill="#e0e0e0" stroke="#999999" points="221.88,-20 96.38,-20 96.38,0 221.88,0 221.88,-20"/>
<text text-anchor="middle" x="159.12" y="-6.5" font-family="Helvetica,sans-Serif" font-size="10.00">GameplayTagContainer.h</text>
</a>
</g>
</g>
<!-- Node1&#45;&gt;Node3 -->
<g id="edge2_Node000001_Node000003" class="edge">
<title>Node1&#45;&gt;Node3</title>
<g id="a_edge2_Node000001_Node000003"><a xlink:title=" ">
<path fill="none" stroke="#63b8ff" d="M203.88,-55.75C195.04,-46.92 184.91,-36.78 176.52,-28.4"/>
<polygon fill="#63b8ff" stroke="#63b8ff" points="179.16,-26.09 169.61,-21.49 174.21,-31.04 179.16,-26.09"/>
</a>
</g>
</g>
<!-- Node4 -->
<g id="Node000004" class="node">
<title>Node4</title>
<g id="a_Node000004"><a xlink:title=" ">
<polygon fill="#e0e0e0" stroke="#999999" points="342.62,-20 239.62,-20 239.62,0 342.62,0 342.62,-20"/>
<text text-anchor="middle" x="291.12" y="-6.5" font-family="Helvetica,sans-Serif" font-size="10.00">Engine/DataAsset.h</text>
</a>
</g>
</g>
<!-- Node1&#45;&gt;Node4 -->
<g id="edge3_Node000001_Node000004" class="edge">
<title>Node1&#45;&gt;Node4</title>
<g id="a_edge3_Node000001_Node000004"><a xlink:title=" ">
<path fill="none" stroke="#63b8ff" d="M246.37,-55.75C255.21,-46.92 265.34,-36.78 273.73,-28.4"/>
<polygon fill="#63b8ff" stroke="#63b8ff" points="276.04,-31.04 280.64,-21.49 271.09,-26.09 276.04,-31.04"/>
</a>
</g>
</g>
<!-- Node5 -->
<g id="Node000005" class="node">
<title>Node5</title>
<g id="a_Node000005"><a xlink:title=" ">
<polygon fill="#e0e0e0" stroke="#999999" points="539.12,-20 361.12,-20 361.12,0 539.12,0 539.12,-20"/>
<text text-anchor="middle" x="450.12" y="-6.5" font-family="Helvetica,sans-Serif" font-size="10.00">ScarletInputConfiguration.generated.h</text>
</a>
</g>
</g>
<!-- Node1&#45;&gt;Node5 -->
<g id="edge4_Node000001_Node000005" class="edge">
<title>Node1&#45;&gt;Node5</title>
<g id="a_edge4_Node000001_Node000005"><a xlink:title=" ">
<path fill="none" stroke="#63b8ff" d="M290.81,-57.73C328.33,-46.73 374.32,-33.24 407.22,-23.59"/>
<polygon fill="#63b8ff" stroke="#63b8ff" points="407.78,-27.07 416.39,-20.89 405.81,-20.35 407.78,-27.07"/>
</a>
</g>
</g>
</g>
</svg>
