<?xml version="1.0" encoding="UTF-8" standalone="no"?>
<!DOCTYPE svg PUBLIC "-//W3C//DTD SVG 1.1//EN"
 "http://www.w3.org/Graphics/SVG/1.1/DTD/svg11.dtd">
<!-- Generated by graphviz version 9.0.0 (20230911.1827)
 -->
<!-- Title: C:/Dev/Scarlet/Source/Scarlet/Core/ScarletNativeGameplayTags.cpp Pages: 1 -->
<svg width="220pt" height="164pt"
 viewBox="0.00 0.00 220.00 164.00" xmlns="http://www.w3.org/2000/svg" xmlns:xlink="http://www.w3.org/1999/xlink">
<g id="graph0" class="graph" transform="scale(1 1) rotate(0) translate(4 160)">
<title>C:/Dev/Scarlet/Source/Scarlet/Core/ScarletNativeGameplayTags.cpp</title>
<!-- Node1 -->
<g id="Node000001" class="node">
<title>Node1</title>
<g id="a_Node000001"><a xlink:title=" ">
<polygon fill="#999999" stroke="#666666" points="162.62,-156 29.62,-156 29.62,-112 162.62,-112 162.62,-156"/>
<text text-anchor="start" x="37.62" y="-142.5" font-family="Helvetica,sans-Serif" font-size="10.00">C:/Dev/Scarlet/Source</text>
<text text-anchor="start" x="37.62" y="-130.5" font-family="Helvetica,sans-Serif" font-size="10.00">/Scarlet/Core/ScarletNative</text>
<text text-anchor="middle" x="96.12" y="-118.5" font-family="Helvetica,sans-Serif" font-size="10.00">GameplayTags.cpp</text>
</a>
</g>
</g>
<!-- Node2 -->
<g id="Node000002" class="node">
<title>Node2</title>
<g id="a_Node000002"><a xlink:href="_scarlet_native_gameplay_tags_8h.html" target="_top" xlink:title=" ">
<polygon fill="white" stroke="#666666" points="169.38,-76 22.88,-76 22.88,-56 169.38,-56 169.38,-76"/>
<text text-anchor="middle" x="96.12" y="-62.5" font-family="Helvetica,sans-Serif" font-size="10.00">ScarletNativeGameplayTags.h</text>
</a>
</g>
</g>
<!-- Node1&#45;&gt;Node2 -->
<g id="edge1_Node000001_Node000002" class="edge">
<title>Node1&#45;&gt;Node2</title>
<g id="a_edge1_Node000001_Node000002"><a xlink:title=" ">
<path fill="none" stroke="#63b8ff" d="M96.12,-111.75C96.12,-104.13 96.12,-95.53 96.12,-87.93"/>
<polygon fill="#63b8ff" stroke="#63b8ff" points="99.63,-87.93 96.13,-77.93 92.63,-87.93 99.63,-87.93"/>
</a>
</g>
</g>
<!-- Node3 -->
<g id="Node000003" class="node">
<title>Node3</title>
<g id="a_Node000003"><a xlink:title=" ">
<polygon fill="#e0e0e0" stroke="#999999" points="78.25,-20 0,-20 0,0 78.25,0 78.25,-20"/>
<text text-anchor="middle" x="39.12" y="-6.5" font-family="Helvetica,sans-Serif" font-size="10.00">CoreMinimal.h</text>
</a>
</g>
</g>
<!-- Node2&#45;&gt;Node3 -->
<g id="edge2_Node000002_Node000003" class="edge">
<title>Node2&#45;&gt;Node3</title>
<g id="a_edge2_Node000002_Node000003"><a xlink:title=" ">
<path fill="none" stroke="#63b8ff" d="M86.2,-55.59C78.19,-48.01 66.71,-37.13 57.09,-28.02"/>
<polygon fill="#63b8ff" stroke="#63b8ff" points="59.71,-25.68 50.04,-21.34 54.89,-30.76 59.71,-25.68"/>
</a>
</g>
</g>
<!-- Node4 -->
<g id="Node000004" class="node">
<title>Node4</title>
<g id="a_Node000004"><a xlink:title=" ">
<polygon fill="#e0e0e0" stroke="#999999" points="212,-20 96.25,-20 96.25,0 212,0 212,-20"/>
<text text-anchor="middle" x="154.12" y="-6.5" font-family="Helvetica,sans-Serif" font-size="10.00">NativeGameplayTags.h</text>
</a>
</g>
</g>
<!-- Node2&#45;&gt;Node4 -->
<g id="edge3_Node000002_Node000004" class="edge">
<title>Node2&#45;&gt;Node4</title>
<g id="a_edge3_Node000002_Node000004"><a xlink:title=" ">
<path fill="none" stroke="#63b8ff" d="M106.23,-55.59C114.38,-48.01 126.06,-37.13 135.84,-28.02"/>
<polygon fill="#63b8ff" stroke="#63b8ff" points="138.1,-30.71 143.03,-21.33 133.33,-25.58 138.1,-30.71"/>
</a>
</g>
</g>
</g>
</svg>
