<?xml version="1.0" encoding="UTF-8" standalone="no"?>
<!DOCTYPE svg PUBLIC "-//W3C//DTD SVG 1.1//EN"
 "http://www.w3.org/Graphics/SVG/1.1/DTD/svg11.dtd">
<!-- Generated by graphviz version 9.0.0 (20230911.1827)
 -->
<!-- Title: C:/Dev/Scarlet/Source/Scarlet/Core/ScarletNativeGameplayTags.h Pages: 1 -->
<svg width="220pt" height="108pt"
 viewBox="0.00 0.00 220.00 108.00" xmlns="http://www.w3.org/2000/svg" xmlns:xlink="http://www.w3.org/1999/xlink">
<g id="graph0" class="graph" transform="scale(1 1) rotate(0) translate(4 104)">
<title>C:/Dev/Scarlet/Source/Scarlet/Core/ScarletNativeGameplayTags.h</title>
<!-- Node1 -->
<g id="Node000001" class="node">
<title>Node1</title>
<g id="a_Node000001"><a xlink:title=" ">
<polygon fill="#999999" stroke="#666666" points="162.62,-100 29.62,-100 29.62,-56 162.62,-56 162.62,-100"/>
<text text-anchor="start" x="37.62" y="-86.5" font-family="Helvetica,sans-Serif" font-size="10.00">C:/Dev/Scarlet/Source</text>
<text text-anchor="start" x="37.62" y="-74.5" font-family="Helvetica,sans-Serif" font-size="10.00">/Scarlet/Core/ScarletNative</text>
<text text-anchor="middle" x="96.12" y="-62.5" font-family="Helvetica,sans-Serif" font-size="10.00">GameplayTags.h</text>
</a>
</g>
</g>
<!-- Node2 -->
<g id="Node000002" class="node">
<title>Node2</title>
<g id="a_Node000002"><a xlink:title=" ">
<polygon fill="#e0e0e0" stroke="#999999" points="78.25,-20 0,-20 0,0 78.25,0 78.25,-20"/>
<text text-anchor="middle" x="39.12" y="-6.5" font-family="Helvetica,sans-Serif" font-size="10.00">CoreMinimal.h</text>
</a>
</g>
</g>
<!-- Node1&#45;&gt;Node2 -->
<g id="edge1_Node000001_Node000002" class="edge">
<title>Node1&#45;&gt;Node2</title>
<g id="a_edge1_Node000001_Node000002"><a xlink:title=" ">
<path fill="none" stroke="#63b8ff" d="M77.78,-55.75C70.3,-47.1 61.76,-37.21 54.61,-28.93"/>
<polygon fill="#63b8ff" stroke="#63b8ff" points="57.43,-26.84 48.25,-21.56 52.14,-31.42 57.43,-26.84"/>
</a>
</g>
</g>
<!-- Node3 -->
<g id="Node000003" class="node">
<title>Node3</title>
<g id="a_Node000003"><a xlink:title=" ">
<polygon fill="#e0e0e0" stroke="#999999" points="212,-20 96.25,-20 96.25,0 212,0 212,-20"/>
<text text-anchor="middle" x="154.12" y="-6.5" font-family="Helvetica,sans-Serif" font-size="10.00">NativeGameplayTags.h</text>
</a>
</g>
</g>
<!-- Node1&#45;&gt;Node3 -->
<g id="edge2_Node000001_Node000003" class="edge">
<title>Node1&#45;&gt;Node3</title>
<g id="a_edge2_Node000001_Node000003"><a xlink:title=" ">
<path fill="none" stroke="#63b8ff" d="M114.8,-55.75C122.4,-47.1 131.09,-37.21 138.37,-28.93"/>
<polygon fill="#63b8ff" stroke="#63b8ff" points="140.88,-31.38 144.85,-21.56 135.62,-26.76 140.88,-31.38"/>
</a>
</g>
</g>
</g>
</svg>
