<?xml version="1.0" encoding="UTF-8" standalone="no"?>
<!DOCTYPE svg PUBLIC "-//W3C//DTD SVG 1.1//EN"
 "http://www.w3.org/Graphics/SVG/1.1/DTD/svg11.dtd">
<!-- Generated by graphviz version 9.0.0 (20230911.1827)
 -->
<!-- Title: C:/Dev/Scarlet/Source/Scarlet/Core/Scarlet.h Pages: 1 -->
<svg width="336pt" height="108pt"
 viewBox="0.00 0.00 335.75 108.00" xmlns="http://www.w3.org/2000/svg" xmlns:xlink="http://www.w3.org/1999/xlink">
<g id="graph0" class="graph" transform="scale(1 1) rotate(0) translate(4 104)">
<title>C:/Dev/Scarlet/Source/Scarlet/Core/Scarlet.h</title>
<!-- Node1 -->
<g id="Node000001" class="node">
<title>Node1</title>
<g id="a_Node000001"><a xlink:title=" ">
<polygon fill="#999999" stroke="#666666" points="235.5,-100 120.5,-100 120.5,-68 235.5,-68 235.5,-100"/>
<text text-anchor="start" x="128.5" y="-86.5" font-family="Helvetica,sans-Serif" font-size="10.00">C:/Dev/Scarlet/Source</text>
<text text-anchor="middle" x="178" y="-74.5" font-family="Helvetica,sans-Serif" font-size="10.00">/Scarlet/Core/Scarlet.h</text>
</a>
</g>
</g>
<!-- Node2 -->
<g id="Node000002" class="node">
<title>Node2</title>
<g id="a_Node000002"><a xlink:href="_agent_character_8cpp.html" target="_top" xlink:title=" ">
<polygon fill="white" stroke="#666666" points="184,-32 0,-32 0,0 184,0 184,-32"/>
<text text-anchor="start" x="8" y="-18.5" font-family="Helvetica,sans-Serif" font-size="10.00">C:/Dev/Scarlet/Source</text>
<text text-anchor="middle" x="92" y="-6.5" font-family="Helvetica,sans-Serif" font-size="10.00">/Scarlet/Character/AgentCharacter.cpp</text>
</a>
</g>
</g>
<!-- Node1&#45;&gt;Node2 -->
<g id="edge1_Node000001_Node000002" class="edge">
<title>Node1&#45;&gt;Node2</title>
<g id="a_edge1_Node000001_Node000002"><a xlink:title=" ">
<path fill="none" stroke="#63b8ff" d="M149.17,-60.87C137.01,-51.55 123.16,-40.91 112.14,-32.45"/>
<polygon fill="#63b8ff" stroke="#63b8ff" points="146.79,-63.46 156.85,-66.77 151.05,-57.91 146.79,-63.46"/>
</a>
</g>
</g>
<!-- Node3 -->
<g id="Node000003" class="node">
<title>Node3</title>
<g id="a_Node000003"><a xlink:href="_scarlet_8cpp.html" target="_top" xlink:title=" ">
<polygon fill="white" stroke="#666666" points="327.75,-32 202.25,-32 202.25,0 327.75,0 327.75,-32"/>
<text text-anchor="start" x="210.25" y="-18.5" font-family="Helvetica,sans-Serif" font-size="10.00">C:/Dev/Scarlet/Source</text>
<text text-anchor="middle" x="265" y="-6.5" font-family="Helvetica,sans-Serif" font-size="10.00">/Scarlet/Core/Scarlet.cpp</text>
</a>
</g>
</g>
<!-- Node1&#45;&gt;Node3 -->
<g id="edge2_Node000001_Node000003" class="edge">
<title>Node1&#45;&gt;Node3</title>
<g id="a_edge2_Node000001_Node000003"><a xlink:title=" ">
<path fill="none" stroke="#63b8ff" d="M207.17,-60.87C219.46,-51.55 233.48,-40.91 244.63,-32.45"/>
<polygon fill="#63b8ff" stroke="#63b8ff" points="205.24,-57.95 199.38,-66.78 209.47,-63.52 205.24,-57.95"/>
</a>
</g>
</g>
</g>
</svg>
