<?xml version="1.0" encoding="UTF-8" standalone="no"?>
<!DOCTYPE svg PUBLIC "-//W3C//DTD SVG 1.1//EN"
 "http://www.w3.org/Graphics/SVG/1.1/DTD/svg11.dtd">
<!-- Generated by graphviz version 9.0.0 (20230911.1827)
 -->
<!-- Title: C:/Dev/Scarlet/Source/Scarlet/Core/ScarletGameMode.cpp Pages: 1 -->
<svg width="448pt" height="152pt"
 viewBox="0.00 0.00 447.62 152.00" xmlns="http://www.w3.org/2000/svg" xmlns:xlink="http://www.w3.org/1999/xlink">
<g id="graph0" class="graph" transform="scale(1 1) rotate(0) translate(4 148)">
<title>C:/Dev/Scarlet/Source/Scarlet/Core/ScarletGameMode.cpp</title>
<!-- Node1 -->
<g id="Node000001" class="node">
<title>Node1</title>
<g id="a_Node000001"><a xlink:title=" ">
<polygon fill="#999999" stroke="#666666" points="343,-144 167.25,-144 167.25,-112 343,-112 343,-144"/>
<text text-anchor="start" x="175.25" y="-130.5" font-family="Helvetica,sans-Serif" font-size="10.00">C:/Dev/Scarlet/Source</text>
<text text-anchor="middle" x="255.12" y="-118.5" font-family="Helvetica,sans-Serif" font-size="10.00">/Scarlet/Core/ScarletGameMode.cpp</text>
</a>
</g>
</g>
<!-- Node2 -->
<g id="Node000002" class="node">
<title>Node2</title>
<g id="a_Node000002"><a xlink:href="_scarlet_game_mode_8h.html" target="_top" xlink:title=" ">
<polygon fill="white" stroke="#666666" points="235.75,-76 130.5,-76 130.5,-56 235.75,-56 235.75,-76"/>
<text text-anchor="middle" x="183.12" y="-62.5" font-family="Helvetica,sans-Serif" font-size="10.00">ScarletGameMode.h</text>
</a>
</g>
</g>
<!-- Node1&#45;&gt;Node2 -->
<g id="edge1_Node000001_Node000002" class="edge">
<title>Node1&#45;&gt;Node2</title>
<g id="a_edge1_Node000001_Node000002"><a xlink:title=" ">
<path fill="none" stroke="#63b8ff" d="M236.58,-111.55C226.37,-103.04 213.7,-92.48 203.25,-83.77"/>
<polygon fill="#63b8ff" stroke="#63b8ff" points="205.5,-81.09 195.58,-77.38 201.02,-86.47 205.5,-81.09"/>
</a>
</g>
</g>
<!-- Node6 -->
<g id="Node000006" class="node">
<title>Node6</title>
<g id="a_Node000006"><a xlink:title=" ">
<polygon fill="#e0e0e0" stroke="#999999" points="400,-76 254.25,-76 254.25,-56 400,-56 400,-76"/>
<text text-anchor="middle" x="327.12" y="-62.5" font-family="Helvetica,sans-Serif" font-size="10.00">UObject/ConstructorHelpers.h</text>
</a>
</g>
</g>
<!-- Node1&#45;&gt;Node6 -->
<g id="edge5_Node000001_Node000006" class="edge">
<title>Node1&#45;&gt;Node6</title>
<g id="a_edge5_Node000001_Node000006"><a xlink:title=" ">
<path fill="none" stroke="#63b8ff" d="M273.67,-111.55C283.88,-103.04 296.55,-92.48 307,-83.77"/>
<polygon fill="#63b8ff" stroke="#63b8ff" points="309.23,-86.47 314.67,-77.38 304.75,-81.09 309.23,-86.47"/>
</a>
</g>
</g>
<!-- Node3 -->
<g id="Node000003" class="node">
<title>Node3</title>
<g id="a_Node000003"><a xlink:title=" ">
<polygon fill="#e0e0e0" stroke="#999999" points="78.25,-20 0,-20 0,0 78.25,0 78.25,-20"/>
<text text-anchor="middle" x="39.12" y="-6.5" font-family="Helvetica,sans-Serif" font-size="10.00">CoreMinimal.h</text>
</a>
</g>
</g>
<!-- Node2&#45;&gt;Node3 -->
<g id="edge2_Node000002_Node000003" class="edge">
<title>Node2&#45;&gt;Node3</title>
<g id="a_edge2_Node000002_Node000003"><a xlink:title=" ">
<path fill="none" stroke="#63b8ff" d="M158.04,-55.59C135.06,-46.97 100.77,-34.12 74.91,-24.42"/>
<polygon fill="#63b8ff" stroke="#63b8ff" points="76.41,-21.25 65.82,-21.01 73.96,-27.8 76.41,-21.25"/>
</a>
</g>
</g>
<!-- Node4 -->
<g id="Node000004" class="node">
<title>Node4</title>
<g id="a_Node000004"><a xlink:title=" ">
<polygon fill="#e0e0e0" stroke="#999999" points="270.25,-20 96,-20 96,0 270.25,0 270.25,-20"/>
<text text-anchor="middle" x="183.12" y="-6.5" font-family="Helvetica,sans-Serif" font-size="10.00">GameFramework/GameModeBase.h</text>
</a>
</g>
</g>
<!-- Node2&#45;&gt;Node4 -->
<g id="edge3_Node000002_Node000004" class="edge">
<title>Node2&#45;&gt;Node4</title>
<g id="a_edge3_Node000002_Node000004"><a xlink:title=" ">
<path fill="none" stroke="#63b8ff" d="M183.12,-55.59C183.12,-49.01 183.12,-39.96 183.12,-31.73"/>
<polygon fill="#63b8ff" stroke="#63b8ff" points="186.63,-31.81 183.13,-21.81 179.63,-31.81 186.63,-31.81"/>
</a>
</g>
</g>
<!-- Node5 -->
<g id="Node000005" class="node">
<title>Node5</title>
<g id="a_Node000005"><a xlink:title=" ">
<polygon fill="#e0e0e0" stroke="#999999" points="439.62,-20 288.62,-20 288.62,0 439.62,0 439.62,-20"/>
<text text-anchor="middle" x="364.12" y="-6.5" font-family="Helvetica,sans-Serif" font-size="10.00">ScarletGameMode.generated.h</text>
</a>
</g>
</g>
<!-- Node2&#45;&gt;Node5 -->
<g id="edge4_Node000002_Node000005" class="edge">
<title>Node2&#45;&gt;Node5</title>
<g id="a_edge4_Node000002_Node000005"><a xlink:title=" ">
<path fill="none" stroke="#63b8ff" d="M214.65,-55.59C244.32,-46.74 288.96,-33.43 321.73,-23.65"/>
<polygon fill="#63b8ff" stroke="#63b8ff" points="322.32,-27.13 330.9,-20.91 320.32,-20.42 322.32,-27.13"/>
</a>
</g>
</g>
</g>
</svg>
