<?xml version="1.0" encoding="UTF-8" standalone="no"?>
<!DOCTYPE svg PUBLIC "-//W3C//DTD SVG 1.1//EN"
 "http://www.w3.org/Graphics/SVG/1.1/DTD/svg11.dtd">
<!-- Generated by graphviz version 9.0.0 (20230911.1827)
 -->
<!-- Title: C:/Dev/Scarlet/Source/Scarlet/Core/Input/ScarletInputConfiguration.cpp Pages: 1 -->
<svg width="547pt" height="164pt"
 viewBox="0.00 0.00 547.12 164.00" xmlns="http://www.w3.org/2000/svg" xmlns:xlink="http://www.w3.org/1999/xlink">
<g id="graph0" class="graph" transform="scale(1 1) rotate(0) translate(4 160)">
<title>C:/Dev/Scarlet/Source/Scarlet/Core/Input/ScarletInputConfiguration.cpp</title>
<!-- Node1 -->
<g id="Node000001" class="node">
<title>Node1</title>
<g id="a_Node000001"><a xlink:title=" ">
<polygon fill="#999999" stroke="#666666" points="290.5,-156 159.75,-156 159.75,-112 290.5,-112 290.5,-156"/>
<text text-anchor="start" x="167.75" y="-142.5" font-family="Helvetica,sans-Serif" font-size="10.00">C:/Dev/Scarlet/Source</text>
<text text-anchor="start" x="167.75" y="-130.5" font-family="Helvetica,sans-Serif" font-size="10.00">/Scarlet/Core/Input/Scarlet</text>
<text text-anchor="middle" x="225.12" y="-118.5" font-family="Helvetica,sans-Serif" font-size="10.00">InputConfiguration.cpp</text>
</a>
</g>
</g>
<!-- Node2 -->
<g id="Node000002" class="node">
<title>Node2</title>
<g id="a_Node000002"><a xlink:href="_scarlet_input_configuration_8h.html" target="_top" xlink:title=" ">
<polygon fill="white" stroke="#666666" points="291.25,-76 159,-76 159,-56 291.25,-56 291.25,-76"/>
<text text-anchor="middle" x="225.12" y="-62.5" font-family="Helvetica,sans-Serif" font-size="10.00">ScarletInputConfiguration.h</text>
</a>
</g>
</g>
<!-- Node1&#45;&gt;Node2 -->
<g id="edge1_Node000001_Node000002" class="edge">
<title>Node1&#45;&gt;Node2</title>
<g id="a_edge1_Node000001_Node000002"><a xlink:title=" ">
<path fill="none" stroke="#63b8ff" d="M225.12,-111.75C225.12,-104.13 225.12,-95.53 225.12,-87.93"/>
<polygon fill="#63b8ff" stroke="#63b8ff" points="228.63,-87.93 225.13,-77.93 221.63,-87.93 228.63,-87.93"/>
</a>
</g>
</g>
<!-- Node3 -->
<g id="Node000003" class="node">
<title>Node3</title>
<g id="a_Node000003"><a xlink:title=" ">
<polygon fill="#e0e0e0" stroke="#999999" points="78.25,-20 0,-20 0,0 78.25,0 78.25,-20"/>
<text text-anchor="middle" x="39.12" y="-6.5" font-family="Helvetica,sans-Serif" font-size="10.00">CoreMinimal.h</text>
</a>
</g>
</g>
<!-- Node2&#45;&gt;Node3 -->
<g id="edge2_Node000002_Node000003" class="edge">
<title>Node2&#45;&gt;Node3</title>
<g id="a_edge2_Node000002_Node000003"><a xlink:title=" ">
<path fill="none" stroke="#63b8ff" d="M192.73,-55.59C162.24,-46.74 116.37,-33.43 82.69,-23.65"/>
<polygon fill="#63b8ff" stroke="#63b8ff" points="83.81,-20.33 73.23,-20.9 81.86,-27.05 83.81,-20.33"/>
</a>
</g>
</g>
<!-- Node4 -->
<g id="Node000004" class="node">
<title>Node4</title>
<g id="a_Node000004"><a xlink:title=" ">
<polygon fill="#e0e0e0" stroke="#999999" points="221.88,-20 96.38,-20 96.38,0 221.88,0 221.88,-20"/>
<text text-anchor="middle" x="159.12" y="-6.5" font-family="Helvetica,sans-Serif" font-size="10.00">GameplayTagContainer.h</text>
</a>
</g>
</g>
<!-- Node2&#45;&gt;Node4 -->
<g id="edge3_Node000002_Node000004" class="edge">
<title>Node2&#45;&gt;Node4</title>
<g id="a_edge3_Node000002_Node000004"><a xlink:title=" ">
<path fill="none" stroke="#63b8ff" d="M213.63,-55.59C204.16,-47.85 190.52,-36.69 179.25,-27.47"/>
<polygon fill="#63b8ff" stroke="#63b8ff" points="181.62,-24.88 171.66,-21.26 177.18,-30.3 181.62,-24.88"/>
</a>
</g>
</g>
<!-- Node5 -->
<g id="Node000005" class="node">
<title>Node5</title>
<g id="a_Node000005"><a xlink:title=" ">
<polygon fill="#e0e0e0" stroke="#999999" points="342.62,-20 239.62,-20 239.62,0 342.62,0 342.62,-20"/>
<text text-anchor="middle" x="291.12" y="-6.5" font-family="Helvetica,sans-Serif" font-size="10.00">Engine/DataAsset.h</text>
</a>
</g>
</g>
<!-- Node2&#45;&gt;Node5 -->
<g id="edge4_Node000002_Node000005" class="edge">
<title>Node2&#45;&gt;Node5</title>
<g id="a_edge4_Node000002_Node000005"><a xlink:title=" ">
<path fill="none" stroke="#63b8ff" d="M236.62,-55.59C246.09,-47.85 259.73,-36.69 271,-27.47"/>
<polygon fill="#63b8ff" stroke="#63b8ff" points="273.07,-30.3 278.59,-21.26 268.63,-24.88 273.07,-30.3"/>
</a>
</g>
</g>
<!-- Node6 -->
<g id="Node000006" class="node">
<title>Node6</title>
<g id="a_Node000006"><a xlink:title=" ">
<polygon fill="#e0e0e0" stroke="#999999" points="539.12,-20 361.12,-20 361.12,0 539.12,0 539.12,-20"/>
<text text-anchor="middle" x="450.12" y="-6.5" font-family="Helvetica,sans-Serif" font-size="10.00">ScarletInputConfiguration.generated.h</text>
</a>
</g>
</g>
<!-- Node2&#45;&gt;Node6 -->
<g id="edge5_Node000002_Node000006" class="edge">
<title>Node2&#45;&gt;Node6</title>
<g id="a_edge5_Node000002_Node000006"><a xlink:title=" ">
<path fill="none" stroke="#63b8ff" d="M264.57,-55.53C302.13,-46.52 358.82,-32.91 399.65,-23.11"/>
<polygon fill="#63b8ff" stroke="#63b8ff" points="400.34,-26.55 409.25,-20.81 398.71,-19.74 400.34,-26.55"/>
</a>
</g>
</g>
</g>
</svg>
