<?xml version="1.0" encoding="UTF-8" standalone="no"?>
<!DOCTYPE svg PUBLIC "-//W3C//DTD SVG 1.1//EN"
 "http://www.w3.org/Graphics/SVG/1.1/DTD/svg11.dtd">
<!-- Generated by graphviz version 9.0.0 (20230911.1827)
 -->
<!-- Title: C:/Dev/Scarlet/Source/Scarlet/Core/Scarlet.cpp Pages: 1 -->
<svg width="226pt" height="152pt"
 viewBox="0.00 0.00 225.62 152.00" xmlns="http://www.w3.org/2000/svg" xmlns:xlink="http://www.w3.org/1999/xlink">
<g id="graph0" class="graph" transform="scale(1 1) rotate(0) translate(4 148)">
<title>C:/Dev/Scarlet/Source/Scarlet/Core/Scarlet.cpp</title>
<!-- Node1 -->
<g id="Node000001" class="node">
<title>Node1</title>
<g id="a_Node000001"><a xlink:title=" ">
<polygon fill="#999999" stroke="#666666" points="157.88,-144 32.38,-144 32.38,-112 157.88,-112 157.88,-144"/>
<text text-anchor="start" x="40.38" y="-130.5" font-family="Helvetica,sans-Serif" font-size="10.00">C:/Dev/Scarlet/Source</text>
<text text-anchor="middle" x="95.12" y="-118.5" font-family="Helvetica,sans-Serif" font-size="10.00">/Scarlet/Core/Scarlet.cpp</text>
</a>
</g>
</g>
<!-- Node2 -->
<g id="Node000002" class="node">
<title>Node2</title>
<g id="a_Node000002"><a xlink:href="_scarlet_8h.html" target="_top" xlink:title=" ">
<polygon fill="white" stroke="#666666" points="66.62,-76 11.62,-76 11.62,-56 66.62,-56 66.62,-76"/>
<text text-anchor="middle" x="39.12" y="-62.5" font-family="Helvetica,sans-Serif" font-size="10.00">Scarlet.h</text>
</a>
</g>
</g>
<!-- Node1&#45;&gt;Node2 -->
<g id="edge1_Node000001_Node000002" class="edge">
<title>Node1&#45;&gt;Node2</title>
<g id="a_edge1_Node000001_Node000002"><a xlink:title=" ">
<path fill="none" stroke="#63b8ff" d="M80.7,-111.55C73.01,-103.3 63.5,-93.12 55.53,-84.57"/>
<polygon fill="#63b8ff" stroke="#63b8ff" points="58.32,-82.44 48.94,-77.51 53.2,-87.21 58.32,-82.44"/>
</a>
</g>
</g>
<!-- Node4 -->
<g id="Node000004" class="node">
<title>Node4</title>
<g id="a_Node000004"><a xlink:title=" ">
<polygon fill="#e0e0e0" stroke="#999999" points="217.62,-76 84.62,-76 84.62,-56 217.62,-56 217.62,-76"/>
<text text-anchor="middle" x="151.12" y="-62.5" font-family="Helvetica,sans-Serif" font-size="10.00">Modules/ModuleManager.h</text>
</a>
</g>
</g>
<!-- Node1&#45;&gt;Node4 -->
<g id="edge3_Node000001_Node000004" class="edge">
<title>Node1&#45;&gt;Node4</title>
<g id="a_edge3_Node000001_Node000004"><a xlink:title=" ">
<path fill="none" stroke="#63b8ff" d="M109.55,-111.55C117.24,-103.3 126.75,-93.12 134.72,-84.57"/>
<polygon fill="#63b8ff" stroke="#63b8ff" points="137.05,-87.21 141.31,-77.51 131.93,-82.44 137.05,-87.21"/>
</a>
</g>
</g>
<!-- Node3 -->
<g id="Node000003" class="node">
<title>Node3</title>
<g id="a_Node000003"><a xlink:title=" ">
<polygon fill="#e0e0e0" stroke="#999999" points="78.25,-20 0,-20 0,0 78.25,0 78.25,-20"/>
<text text-anchor="middle" x="39.12" y="-6.5" font-family="Helvetica,sans-Serif" font-size="10.00">CoreMinimal.h</text>
</a>
</g>
</g>
<!-- Node2&#45;&gt;Node3 -->
<g id="edge2_Node000002_Node000003" class="edge">
<title>Node2&#45;&gt;Node3</title>
<g id="a_edge2_Node000002_Node000003"><a xlink:title=" ">
<path fill="none" stroke="#63b8ff" d="M39.12,-55.59C39.12,-49.01 39.12,-39.96 39.12,-31.73"/>
<polygon fill="#63b8ff" stroke="#63b8ff" points="42.63,-31.81 39.13,-21.81 35.63,-31.81 42.63,-31.81"/>
</a>
</g>
</g>
</g>
</svg>
