<?xml version="1.0" encoding="UTF-8" standalone="no"?>
<!DOCTYPE svg PUBLIC "-//W3C//DTD SVG 1.1//EN"
 "http://www.w3.org/Graphics/SVG/1.1/DTD/svg11.dtd">
<!-- Generated by graphviz version 9.0.0 (20230911.1827)
 -->
<!-- Title: Scarlet Pages: 1 -->
<svg width="74pt" height="148pt"
 viewBox="0.00 0.00 74.00 148.00" xmlns="http://www.w3.org/2000/svg" xmlns:xlink="http://www.w3.org/1999/xlink">
<g id="graph0" class="graph" transform="scale(1 1) rotate(0) translate(4 144)">
<title>Scarlet</title>
<!-- Node1 -->
<g id="Node000001" class="node">
<title>Node1</title>
<g id="a_Node000001"><a xlink:title=" ">
<polygon fill="#999999" stroke="none" points="60,-52 6,-52 6,0 60,0 60,-52"/>
<text text-anchor="start" x="17.62" y="-38.5" font-family="Helvetica,sans-Serif" font-size="10.00">Scarlet</text>
<text text-anchor="start" x="31.5" y="-22.5" font-family="Helvetica,sans-Serif" font-size="10.00"> </text>
<text text-anchor="start" x="10" y="-6.5" font-family="Helvetica,sans-Serif" font-size="10.00">+</text>
<text text-anchor="start" x="20" y="-6.5" font-family="Helvetica,sans-Serif" font-size="10.00">Scarlet()</text>
<polygon fill="#666666" stroke="#666666" points="6,-34 6,-34 60,-34 60,-34 6,-34"/>
<polygon fill="#666666" stroke="#666666" points="6,-18 6,-18 60,-18 60,-18 6,-18"/>
<polygon fill="none" stroke="#666666" points="6,0 6,-52 60,-52 60,0 6,0"/>
</a>
</g>
</g>
<!-- Node2 -->
<g id="Node000002" class="node">
<title>Node2</title>
<g id="a_Node000002"><a xlink:title=" ">
<polygon fill="white" stroke="none" points="66,-140 0,-140 0,-88 66,-88 66,-140"/>
<text text-anchor="start" x="4.88" y="-126.5" font-family="Helvetica,sans-Serif" font-size="10.00">ModuleRules</text>
<text text-anchor="start" x="31.5" y="-110.5" font-family="Helvetica,sans-Serif" font-size="10.00"> </text>
<text text-anchor="start" x="31.5" y="-94.5" font-family="Helvetica,sans-Serif" font-size="10.00"> </text>
<polygon fill="#666666" stroke="#666666" points="0,-122 0,-122 66,-122 66,-122 0,-122"/>
<polygon fill="#666666" stroke="#666666" points="0,-106 0,-106 66,-106 66,-106 0,-106"/>
<polygon fill="none" stroke="#666666" points="0,-88 0,-140 66,-140 66,-88 0,-88"/>
</a>
</g>
</g>
<!-- Node2&#45;&gt;Node1 -->
<g id="edge1_Node000001_Node000002" class="edge">
<title>Node2&#45;&gt;Node1</title>
<g id="a_edge1_Node000001_Node000002"><a xlink:title=" ">
<path fill="none" stroke="#63b8ff" d="M33,-76.66C33,-68.29 33,-59.57 33,-51.82"/>
<polygon fill="none" stroke="#63b8ff" points="29.5,-76.61 33,-86.61 36.5,-76.61 29.5,-76.61"/>
</a>
</g>
</g>
</g>
</svg>
