<?xml version="1.0" encoding="UTF-8" standalone="no"?>
<!DOCTYPE svg PUBLIC "-//W3C//DTD SVG 1.1//EN"
 "http://www.w3.org/Graphics/SVG/1.1/DTD/svg11.dtd">
<!-- Generated by graphviz version 9.0.0 (20230911.1827)
 -->
<!-- Title: AScarletGameMode Pages: 1 -->
<svg width="119pt" height="148pt"
 viewBox="0.00 0.00 119.00 148.00" xmlns="http://www.w3.org/2000/svg" xmlns:xlink="http://www.w3.org/1999/xlink">
<g id="graph0" class="graph" transform="scale(1 1) rotate(0) translate(4 144)">
<title>AScarletGameMode</title>
<!-- Node1 -->
<g id="Node000001" class="node">
<title>Node1</title>
<g id="a_Node000001"><a xlink:title=" ">
<polygon fill="#999999" stroke="none" points="111,-52 0,-52 0,0 111,0 111,-52"/>
<text text-anchor="start" x="11.62" y="-38.5" font-family="Helvetica,sans-Serif" font-size="10.00">AScarletGameMode</text>
<text text-anchor="start" x="54" y="-22.5" font-family="Helvetica,sans-Serif" font-size="10.00"> </text>
<text text-anchor="start" x="4" y="-6.5" font-family="Helvetica,sans-Serif" font-size="10.00">+</text>
<text text-anchor="start" x="14" y="-6.5" font-family="Helvetica,sans-Serif" font-size="10.00">AScarletGameMode()</text>
<polygon fill="#666666" stroke="#666666" points="0,-34 0,-34 111,-34 111,-34 0,-34"/>
<polygon fill="#666666" stroke="#666666" points="0,-18 0,-18 111,-18 111,-18 0,-18"/>
<polygon fill="none" stroke="#666666" points="0,0 0,-52 111,-52 111,0 0,0"/>
</a>
</g>
</g>
<!-- Node2 -->
<g id="Node000002" class="node">
<title>Node2</title>
<g id="a_Node000002"><a xlink:title=" ">
<polygon fill="white" stroke="none" points="100,-140 11,-140 11,-88 100,-88 100,-140"/>
<text text-anchor="start" x="15.75" y="-126.5" font-family="Helvetica,sans-Serif" font-size="10.00">AGameModeBase</text>
<text text-anchor="start" x="54" y="-110.5" font-family="Helvetica,sans-Serif" font-size="10.00"> </text>
<text text-anchor="start" x="54" y="-94.5" font-family="Helvetica,sans-Serif" font-size="10.00"> </text>
<polygon fill="#666666" stroke="#666666" points="11,-122 11,-122 100,-122 100,-122 11,-122"/>
<polygon fill="#666666" stroke="#666666" points="11,-106 11,-106 100,-106 100,-106 11,-106"/>
<polygon fill="none" stroke="#666666" points="11,-88 11,-140 100,-140 100,-88 11,-88"/>
</a>
</g>
</g>
<!-- Node2&#45;&gt;Node1 -->
<g id="edge1_Node000001_Node000002" class="edge">
<title>Node2&#45;&gt;Node1</title>
<g id="a_edge1_Node000001_Node000002"><a xlink:title=" ">
<path fill="none" stroke="#63b8ff" d="M55.5,-76.66C55.5,-68.29 55.5,-59.57 55.5,-51.82"/>
<polygon fill="none" stroke="#63b8ff" points="52,-76.61 55.5,-86.61 59,-76.61 52,-76.61"/>
</a>
</g>
</g>
</g>
</svg>
