<?xml version="1.0" encoding="UTF-8" standalone="no"?>
<!DOCTYPE svg PUBLIC "-//W3C//DTD SVG 1.1//EN"
 "http://www.w3.org/Graphics/SVG/1.1/DTD/svg11.dtd">
<!-- Generated by graphviz version 9.0.0 (20230911.1827)
 -->
<!-- Title: Graphical Class Hierarchy Pages: 1 -->
<svg width="373pt" height="110pt"
 viewBox="0.00 0.00 372.50 110.00" xmlns="http://www.w3.org/2000/svg" xmlns:xlink="http://www.w3.org/1999/xlink">
<g id="graph0" class="graph" transform="scale(1 1) rotate(0) translate(4 106)">
<title>Graphical Class Hierarchy</title>
<!-- Node0 -->
<g id="Node000000" class="node">
<title>Node0</title>
<g id="a_Node000000"><a xlink:title=" ">
<polygon fill="#e0e0e0" stroke="#999999" points="51.25,-64 0,-64 0,-44 51.25,-44 51.25,-64"/>
<text text-anchor="middle" x="25.62" y="-50.5" font-family="Helvetica,sans-Serif" font-size="10.00">UObject</text>
</a>
</g>
</g>
<!-- Node1 -->
<g id="Node000001" class="node">
<title>Node1</title>
<g id="a_Node000001"><a xlink:href="class_u_scarlet_state.html" target="_top" xlink:title=" ">
<polygon fill="white" stroke="#666666" points="193.62,-102 116.88,-102 116.88,-82 193.62,-82 193.62,-102"/>
<text text-anchor="middle" x="155.25" y="-88.5" font-family="Helvetica,sans-Serif" font-size="10.00">UScarletState</text>
</a>
</g>
</g>
<!-- Node0&#45;&gt;Node1 -->
<g id="edge5_Node000000_Node000001" class="edge">
<title>Node0&#45;&gt;Node1</title>
<g id="a_edge5_Node000000_Node000001"><a xlink:title=" ">
<path fill="none" stroke="#63b8ff" d="M62.38,-65.38C70.54,-67.93 79.18,-70.59 87.25,-73 96.75,-75.84 107.04,-78.8 116.64,-81.53"/>
<polygon fill="#63b8ff" stroke="#63b8ff" points="63.68,-62.12 53.09,-62.47 61.58,-68.8 63.68,-62.12"/>
</a>
</g>
</g>
<!-- Node2 -->
<g id="Node000002" class="node">
<title>Node2</title>
<g id="a_Node000002"><a xlink:href="class_u_scarlet_state_machine.html" target="_top" xlink:title="상태 머신 클래스. 상태와 상태의 전환을 관리합니다.">
<polygon fill="white" stroke="#666666" points="212,-64 98.5,-64 98.5,-44 212,-44 212,-64"/>
<text text-anchor="middle" x="155.25" y="-50.5" font-family="Helvetica,sans-Serif" font-size="10.00">UScarletStateMachine</text>
</a>
</g>
</g>
<!-- Node0&#45;&gt;Node2 -->
<g id="edge6_Node000000_Node000002" class="edge">
<title>Node0&#45;&gt;Node2</title>
<g id="a_edge6_Node000000_Node000002"><a xlink:title=" ">
<path fill="none" stroke="#63b8ff" d="M62.87,-54C73.88,-54 86.24,-54 98.23,-54"/>
<polygon fill="#63b8ff" stroke="#63b8ff" points="63.05,-50.5 53.05,-54 63.05,-57.5 63.05,-50.5"/>
</a>
</g>
</g>
<!-- Node3 -->
<g id="Node000003" class="node">
<title>Node3</title>
<g id="a_Node000003"><a xlink:href="class_u_scarlet_transition_condition.html" target="_top" xlink:title=" ">
<polygon fill="white" stroke="#666666" points="223.25,-26 87.25,-26 87.25,-6 223.25,-6 223.25,-26"/>
<text text-anchor="middle" x="155.25" y="-12.5" font-family="Helvetica,sans-Serif" font-size="10.00">UScarletTransitionCondition</text>
</a>
</g>
</g>
<!-- Node0&#45;&gt;Node3 -->
<g id="edge7_Node000000_Node000003" class="edge">
<title>Node0&#45;&gt;Node3</title>
<g id="a_edge7_Node000000_Node000003"><a xlink:title=" ">
<path fill="none" stroke="#63b8ff" d="M62.38,-42.62C70.54,-40.07 79.18,-37.41 87.25,-35 96.75,-32.16 107.04,-29.2 116.64,-26.47"/>
<polygon fill="#63b8ff" stroke="#63b8ff" points="61.58,-39.2 53.09,-45.53 63.68,-45.88 61.58,-39.2"/>
</a>
</g>
</g>
<!-- Node4 -->
<g id="Node000004" class="node">
<title>Node4</title>
<g id="a_Node000004"><a xlink:href="class_u_transition_condition___owned_state_tags.html" target="_top" xlink:title=" ">
<polygon fill="white" stroke="#666666" points="364.5,-32 259.25,-32 259.25,0 364.5,0 364.5,-32"/>
<text text-anchor="start" x="267.25" y="-18.5" font-family="Helvetica,sans-Serif" font-size="10.00">UTransitionCondition</text>
<text text-anchor="middle" x="311.88" y="-6.5" font-family="Helvetica,sans-Serif" font-size="10.00">_OwnedStateTags</text>
</a>
</g>
</g>
<!-- Node3&#45;&gt;Node4 -->
<g id="edge8_Node000003_Node000004" class="edge">
<title>Node3&#45;&gt;Node4</title>
<g id="a_edge8_Node000003_Node000004"><a xlink:title=" ">
<path fill="none" stroke="#63b8ff" d="M235.1,-16C243.23,-16 251.35,-16 259.07,-16"/>
<polygon fill="#63b8ff" stroke="#63b8ff" points="235.13,-12.5 225.13,-16 235.13,-19.5 235.13,-12.5"/>
</a>
</g>
</g>
</g>
</svg>
