<?xml version="1.0" encoding="UTF-8" standalone="no"?>
<!DOCTYPE svg PUBLIC "-//W3C//DTD SVG 1.1//EN"
 "http://www.w3.org/Graphics/SVG/1.1/DTD/svg11.dtd">
<!-- Generated by graphviz version 9.0.0 (20230911.1827)
 -->
<!-- Title: Graphical Class Hierarchy Pages: 1 -->
<svg width="353pt" height="28pt"
 viewBox="0.00 0.00 353.00 28.00" xmlns="http://www.w3.org/2000/svg" xmlns:xlink="http://www.w3.org/1999/xlink">
<g id="graph0" class="graph" transform="scale(1 1) rotate(0) translate(4 24)">
<title>Graphical Class Hierarchy</title>
<!-- Node0 -->
<g id="Node000000" class="node">
<title>Node0</title>
<g id="a_Node000000"><a xlink:title=" ">
<polygon fill="#e0e0e0" stroke="#999999" points="64.75,-20 0,-20 0,0 64.75,0 64.75,-20"/>
<text text-anchor="middle" x="32.38" y="-6.5" font-family="Helvetica,sans-Serif" font-size="10.00">ACharacter</text>
</a>
</g>
</g>
<!-- Node1 -->
<g id="Node000001" class="node">
<title>Node1</title>
<g id="a_Node000001"><a xlink:href="class_a_agent_character.html" target="_top" xlink:title="게임 내 인간 형태의 Agent의 Base class">
<polygon fill="white" stroke="#666666" points="191,-20 100.75,-20 100.75,0 191,0 191,-20"/>
<text text-anchor="middle" x="145.88" y="-6.5" font-family="Helvetica,sans-Serif" font-size="10.00">AAgentCharacter</text>
</a>
</g>
</g>
<!-- Node0&#45;&gt;Node1 -->
<g id="edge1_Node000000_Node000001" class="edge">
<title>Node0&#45;&gt;Node1</title>
<g id="a_edge1_Node000000_Node000001"><a xlink:title=" ">
<path fill="none" stroke="#63b8ff" d="M76.35,-10C84.32,-10 92.65,-10 100.66,-10"/>
<polygon fill="#63b8ff" stroke="#63b8ff" points="76.54,-6.5 66.54,-10 76.54,-13.5 76.54,-6.5"/>
</a>
</g>
</g>
<!-- Node2 -->
<g id="Node000002" class="node">
<title>Node2</title>
<g id="a_Node000002"><a xlink:href="class_a_agent_player_character.html" target="_top" xlink:title=" ">
<polygon fill="white" stroke="#666666" points="345,-20 227,-20 227,0 345,0 345,-20"/>
<text text-anchor="middle" x="286" y="-6.5" font-family="Helvetica,sans-Serif" font-size="10.00">AAgentPlayerCharacter</text>
</a>
</g>
</g>
<!-- Node1&#45;&gt;Node2 -->
<g id="edge2_Node000001_Node000002" class="edge">
<title>Node1&#45;&gt;Node2</title>
<g id="a_edge2_Node000001_Node000002"><a xlink:title=" ">
<path fill="none" stroke="#63b8ff" d="M202.63,-10C210.49,-10 218.59,-10 226.5,-10"/>
<polygon fill="#63b8ff" stroke="#63b8ff" points="202.85,-6.5 192.85,-10 202.85,-13.5 202.85,-6.5"/>
</a>
</g>
</g>
</g>
</svg>
