<?xml version="1.0" encoding="UTF-8" standalone="no"?>
<!DOCTYPE svg PUBLIC "-//W3C//DTD SVG 1.1//EN"
 "http://www.w3.org/Graphics/SVG/1.1/DTD/svg11.dtd">
<!-- Generated by graphviz version 9.0.0 (20230911.1827)
 -->
<!-- Title: FScarletInputTagMapping Pages: 1 -->
<svg width="128pt" height="76pt"
 viewBox="0.00 0.00 128.00 76.00" xmlns="http://www.w3.org/2000/svg" xmlns:xlink="http://www.w3.org/1999/xlink">
<g id="graph0" class="graph" transform="scale(1 1) rotate(0) translate(4 72)">
<title>FScarletInputTagMapping</title>
<!-- Node1 -->
<g id="Node000001" class="node">
<title>Node1</title>
<g id="a_Node000001"><a xlink:title="입력 액션과 게임플레이 태그사이의 관계를 정의하고 표현합니다.">
<polygon fill="#999999" stroke="none" points="120,-68 0,-68 0,0 120,0 120,-68"/>
<text text-anchor="start" x="4.88" y="-54.5" font-family="Helvetica,sans-Serif" font-size="10.00">FScarletInputTagMapping</text>
<text text-anchor="start" x="17.5" y="-38.5" font-family="Helvetica,sans-Serif" font-size="10.00">+</text>
<text text-anchor="start" x="41" y="-38.5" font-family="Helvetica,sans-Serif" font-size="10.00">InputAction</text>
<text text-anchor="start" x="17.5" y="-22.5" font-family="Helvetica,sans-Serif" font-size="10.00">+</text>
<text text-anchor="start" x="41" y="-22.5" font-family="Helvetica,sans-Serif" font-size="10.00">InputTag</text>
<text text-anchor="start" x="58.5" y="-6.5" font-family="Helvetica,sans-Serif" font-size="10.00"> </text>
<polygon fill="#666666" stroke="#666666" points="0,-50 0,-50 120,-50 120,-50 0,-50"/>
<polygon fill="#666666" stroke="#666666" points="0,-18 0,-18 39,-18 39,-18 0,-18"/>
<polygon fill="#666666" stroke="#666666" points="39,-18 39,-18 120,-18 120,-18 39,-18"/>
<polygon fill="none" stroke="#666666" points="0,0 0,-68 120,-68 120,0 0,0"/>
</a>
</g>
</g>
</g>
</svg>
